<svg width="4096" height="4096" viewBox="0 0 4096 4096" fill="none" xmlns="http://www.w3.org/2000/svg">
<rect width="4096" height="4096" rx="532" fill="#212121"/>
<path d="M465.433 2717.75C516.676 2666.4 599.756 2666.4 651 2717.75L1017.48 3084.97L1230.87 2871.15C1282.11 2819.8 1365.19 2819.8 1416.44 2871.15C1467.68 2922.5 1467.68 3005.75 1416.44 3057.1L1153.57 3320.51C1078.41 3395.83 956.549 3395.83 881.392 3320.51L465.433 2903.7C414.189 2852.35 414.189 2769.1 465.433 2717.75Z" fill="#C2C2C2"/>
<g filter="url(#filter0_d_1_80)">
<path d="M2648.59 2248.18C2670.26 2270.17 2697.96 2282.58 2726.44 2285.4C2750.04 2287.73 2771.45 2309.37 2756.99 2328.16C2753.55 2332.63 2749.79 2336.92 2745.7 2341.02L1767.31 3320.5C1692.06 3395.83 1570.08 3395.83 1494.83 3320.5L1027.31 2852.45C976.009 2801.1 976.008 2717.83 1027.31 2666.47C1078.61 2615.11 1161.79 2615.11 1213.09 2666.47L1631.07 3084.91L2559.92 2155.03C2562.97 2151.98 2566.13 2149.11 2569.39 2146.43C2587.67 2131.34 2610 2151.99 2613.07 2175.5C2616.55 2202.02 2628.38 2227.67 2648.59 2248.18Z" fill="white"/>
</g>
<path d="M1946.35 2154.69C1950.17 2150.86 1954.17 2147.32 1958.32 2144.06C1976.74 2129.59 1998.56 2150.11 2001.59 2173.34C2005.03 2199.69 2016.77 2225.17 2036.84 2245.54C2058.57 2267.6 2086.41 2279.96 2114.98 2282.58C2138.31 2284.72 2159.72 2305.71 2146.04 2324.72C2141.95 2330.4 2137.36 2335.83 2132.25 2340.94L1723.29 2750.7C1671.95 2802.13 1588.72 2802.13 1537.39 2750.7C1486.05 2699.27 1486.05 2615.88 1537.39 2564.44L1946.35 2154.69Z" fill="#C2C2C2"/>
<path d="M2238.23 2229.89C2188.26 2279.21 2107.22 2277.76 2057.9 2227.78C2008.59 2177.8 2009.12 2097.31 2059.1 2047.99C2109.08 1998.67 2305.03 1885.28 2354.34 1935.26C2403.66 1985.24 2288.21 2180.57 2238.23 2229.89Z" fill="#00CE11"/>
<path d="M2238.23 2229.89C2188.26 2279.21 2107.22 2277.76 2057.9 2227.78C2008.59 2177.8 2009.12 2097.31 2059.1 2047.99C2109.08 1998.67 2305.03 1885.28 2354.34 1935.26C2403.66 1985.24 2288.21 2180.57 2238.23 2229.89Z" fill="#C2C2C2" style="mix-blend-mode:darken"/>
<path d="M1948.85 2158.35C1952.18 2155.02 1955.64 2151.91 1959.22 2149.03C1977.46 2134.33 1999.34 2154.83 2002.67 2178.02C2006.26 2203.03 2017.59 2227.15 2036.67 2246.52C2057.36 2267.52 2083.75 2279.45 2110.93 2282.3C2134.22 2284.74 2155.62 2305.79 2141.71 2324.63C2137.98 2329.68 2133.83 2334.52 2129.26 2339.09L2110.84 2356.93C2061.03 2406.84 1980.26 2406.84 1930.44 2356.93C1880.62 2307.02 1880.62 2226.1 1930.44 2176.19L1948.85 2158.35Z" fill="#C2C2C2"/>
<path d="M2849.26 2229.89C2799.28 2279.21 2718.25 2277.76 2668.93 2227.78C2619.61 2177.8 2620.15 2097.31 2670.13 2047.99C2720.1 1998.67 2916.05 1885.28 2965.37 1935.26C3014.69 1985.24 2899.24 2180.57 2849.26 2229.89Z" fill="#00CE11"/>
<path d="M2559.88 2158.35C2563.2 2155.02 2566.67 2151.91 2570.25 2149.03C2588.49 2134.33 2610.37 2154.83 2613.7 2178.02C2617.29 2203.03 2628.61 2227.15 2647.69 2246.52C2668.38 2267.52 2694.78 2279.45 2721.95 2282.3C2745.25 2284.74 2766.65 2305.79 2752.73 2324.63C2749 2329.68 2744.85 2334.52 2740.29 2339.09L2721.87 2356.93C2672.05 2406.84 2591.28 2406.84 2541.46 2356.93C2491.65 2307.02 2491.65 2226.1 2541.46 2176.19L2559.88 2158.35Z" fill="white"/>
<path d="M3418.86 1661.58C3368.88 1710.9 3287.85 1709.45 3238.53 1659.47C3189.21 1609.49 3189.75 1529 3239.73 1479.68C3289.71 1430.37 3485.65 1316.98 3534.97 1366.95C3584.29 1416.93 3468.84 1612.27 3418.86 1661.58Z" fill="#00CE11"/>
<path d="M3129.48 1590.05C3132.8 1586.71 3136.27 1583.61 3139.85 1580.72C3158.09 1566.02 3179.97 1586.52 3183.3 1609.71C3186.89 1634.72 3198.21 1658.84 3217.29 1678.21C3237.98 1699.21 3264.38 1711.15 3291.55 1714C3314.85 1716.44 3336.25 1737.48 3322.33 1756.32C3318.6 1761.37 3314.45 1766.21 3309.89 1770.79L3291.47 1788.63C3241.65 1838.54 3160.88 1838.54 3111.06 1788.63C3061.25 1738.72 3061.25 1657.8 3111.06 1607.89L3129.48 1590.05Z" fill="#00CE11"/>
<path d="M2763.82 1703.01C2713.84 1752.33 2632.81 1750.87 2583.49 1700.9C2534.17 1650.92 2534.71 1570.43 2584.69 1521.11C2634.66 1471.79 2830.61 1358.4 2879.93 1408.38C2929.25 1458.36 2813.8 1653.69 2763.82 1703.01Z" fill="#00C211"/>
<path d="M2474.44 1631.47C2477.76 1628.14 2481.23 1625.03 2484.81 1622.14C2503.05 1607.45 2524.93 1627.95 2528.26 1651.14C2531.85 1676.15 2543.17 1700.27 2562.25 1719.64C2582.94 1740.63 2609.34 1752.57 2636.51 1755.42C2659.81 1757.86 2681.21 1778.91 2667.29 1797.75C2663.56 1802.8 2659.41 1807.64 2654.85 1812.21L2636.43 1830.05C2586.61 1879.96 2505.84 1879.96 2456.02 1830.05C2406.21 1780.14 2406.21 1699.22 2456.02 1649.31L2474.44 1631.47Z" fill="#00C211"/>
<path d="M3323.06 1148.94C3273.09 1198.26 3192.05 1196.81 3142.73 1146.83C3093.42 1096.85 3093.95 1016.36 3143.93 967.044C3193.91 917.727 3389.86 804.336 3439.17 854.313C3488.49 904.291 3373.04 1099.63 3323.06 1148.94Z" fill="#00C211"/>
<path d="M3033.68 1077.4C3037.01 1074.07 3040.47 1070.96 3044.05 1068.08C3062.29 1053.38 3084.17 1073.88 3087.5 1097.07C3091.09 1122.08 3102.42 1146.2 3121.5 1165.57C3142.19 1186.57 3168.58 1198.51 3195.76 1201.35C3219.05 1203.8 3240.45 1224.84 3226.54 1243.68C3222.81 1248.73 3218.66 1253.57 3214.09 1258.15L3195.67 1275.99C3145.86 1325.9 3065.09 1325.9 3015.27 1275.99C2965.45 1226.08 2965.45 1145.16 3015.27 1095.25L3033.68 1077.4Z" fill="#00C211"/>
<defs>
<filter id="filter0_d_1_80" x="930.233" y="2082.68" width="1890.05" height="1352.92" filterUnits="userSpaceOnUse" color-interpolation-filters="sRGB">
<feFlood flood-opacity="0" result="BackgroundImageFix"/>
<feColorMatrix in="SourceAlpha" type="matrix" values="0 0 0 0 0 0 0 0 0 0 0 0 0 0 0 0 0 0 127 0" result="hardAlpha"/>
<feOffset/>
<feGaussianBlur stdDeviation="29.3"/>
<feComposite in2="hardAlpha" operator="out"/>
<feColorMatrix type="matrix" values="0 0 0 0 0 0 0 0 0 0 0 0 0 0 0 0 0 0 0.6 0"/>
<feBlend mode="normal" in2="BackgroundImageFix" result="effect1_dropShadow_1_80"/>
<feBlend mode="normal" in="SourceGraphic" in2="effect1_dropShadow_1_80" result="shape"/>
</filter>
</defs>
</svg>
